<?xml version="1.0" encoding="UTF-8" standalone="no" ?>
<!DOCTYPE svg PUBLIC "-//W3C//DTD SVG 1.1//EN" "http://www.w3.org/Graphics/SVG/1.1/DTD/svg11.dtd">
<svg xmlns="http://www.w3.org/2000/svg" xmlns:xlink="http://www.w3.org/1999/xlink" version="1.1" width="320" height="160" viewBox="0 0 320 160" xml:space="preserve">
<desc>Created with Fabric.js 4.2.0</desc>
<defs>
</defs>
<rect x="0" y="0" width="100%" height="100%" fill="transparent"></rect>
<g transform="matrix(1 0 0 1 160 80)" id="238f1e1a-f3ae-4a51-98ea-4cdb90ea346f"  >
<rect style="stroke: none; stroke-width: 1; stroke-dasharray: none; stroke-linecap: butt; stroke-dashoffset: 0; stroke-linejoin: miter; stroke-miterlimit: 4; fill: rgb(255,255,255); fill-opacity: 0; fill-rule: nonzero; opacity: 1;" vector-effect="non-scaling-stroke"  x="-160" y="-80" rx="0" ry="0" width="320" height="160" />
</g>
<g transform="matrix(Infinity NaN NaN Infinity 0 0)" id="763fc245-a2cc-4233-9868-0159668938fe"  >
</g>
<g transform="matrix(0.33 0 0 0.33 160 80)"  >
<g style="" vector-effect="non-scaling-stroke"   >
		<g transform="matrix(1 0 0 1 -433.96 -0.06)"  >
<polygon style="stroke: none; stroke-width: 1; stroke-dasharray: none; stroke-linecap: butt; stroke-dashoffset: 0; stroke-linejoin: miter; stroke-miterlimit: 4; fill: rgb(0,0,38); fill-rule: nonzero; opacity: 1;" vector-effect="non-scaling-stroke"  points="-15.91,25.36 -15.91,69.28 -36.8,69.28 -36.8,-69.28 -15.91,-69.28 -15.91,-19.89 9.61,-69.28 31.87,-69.28 3.29,-12.76 36.8,69.28 12.26,69.28 -9.66,13.03 " />
</g>
		<g transform="matrix(1 0 0 1 -346.49 0)"  >
<rect style="stroke: none; stroke-width: 1; stroke-dasharray: none; stroke-linecap: butt; stroke-dashoffset: 0; stroke-linejoin: miter; stroke-miterlimit: 4; fill: rgb(0,0,38); fill-rule: nonzero; opacity: 1;" vector-effect="non-scaling-stroke"  x="-10.44" y="-69.225" rx="0" ry="0" width="20.88" height="138.45" />
</g>
		<g transform="matrix(1 0 0 1 -261.15 0.11)"  >
<path style="stroke: none; stroke-width: 1; stroke-dasharray: none; stroke-linecap: butt; stroke-dashoffset: 0; stroke-linejoin: miter; stroke-miterlimit: 4; fill: rgb(0,0,38); fill-rule: nonzero; opacity: 1;" vector-effect="non-scaling-stroke"  transform=" translate(-226.08, -84.34)" d="M 226.13 155.22 C 216.92 155.22 209.09 152 202.65 145.55 C 196.21 139.11 192.98000000000002 131.32000000000002 192.98000000000002 122.18 L 192.98000000000002 46.61 C 192.98000000000002 37.4 196.22000000000003 29.57 202.71 23.12 C 209.19 16.68 217 13.450000000000001 226.14000000000001 13.450000000000001 C 235.35000000000002 13.450000000000001 243.16000000000003 16.700000000000003 249.57000000000002 23.18 C 255.98000000000002 29.67 259.18 37.47 259.18 46.61 L 259.18 62.4 L 237.52 62.4 L 237.52 46.16 C 237.52 42.839999999999996 236.34 40.01 233.99 37.65 C 231.63 35.3 228.8 34.12 225.48000000000002 34.12 C 222.16000000000003 34.12 219.35000000000002 35.3 217.03000000000003 37.65 C 214.71000000000004 40.01 213.55000000000004 42.839999999999996 213.55000000000004 46.16 L 213.55000000000004 121.96 C 213.55000000000004 125.27999999999999 214.71000000000004 128.09 217.03000000000003 130.41 C 219.35000000000002 132.73 222.16000000000003 133.89 225.48000000000002 133.89 C 228.8 133.89 231.63000000000002 132.73 233.99 130.41 C 236.34 128.09 237.52 125.28 237.52 121.96 L 237.52 102.85 L 259.18 102.85 L 259.18 122.17999999999999 C 259.18 131.4 255.94 139.2 249.46 145.60999999999999 C 242.96 152.02 235.19 155.22 226.13 155.22" stroke-linecap="round" />
</g>
		<g transform="matrix(1 0 0 1 -150.79 -0.06)"  >
<polygon style="stroke: none; stroke-width: 1; stroke-dasharray: none; stroke-linecap: butt; stroke-dashoffset: 0; stroke-linejoin: miter; stroke-miterlimit: 4; fill: rgb(0,0,38); fill-rule: nonzero; opacity: 1;" vector-effect="non-scaling-stroke"  points="-15.93,25.36 -15.93,69.28 -36.81,69.28 -36.81,-69.28 -15.93,-69.28 -15.93,-19.89 9.6,-69.28 31.87,-69.28 3.28,-12.76 36.81,69.28 12.25,69.28 -9.68,13.03 " />
</g>
		<g transform="matrix(1 0 0 1 -50.28 -0.05)"  >
<path style="stroke: none; stroke-width: 1; stroke-dasharray: none; stroke-linecap: butt; stroke-dashoffset: 0; stroke-linejoin: miter; stroke-miterlimit: 4; fill: rgb(0,0,38); fill-rule: nonzero; opacity: 1;" vector-effect="non-scaling-stroke"  transform=" translate(-436.95, -84.17)" d="M 471.48 118.98 C 471.62 128.63 469.12 136.88 463.97 143.73000000000002 C 460.58000000000004 148.37 455.79 151.65 449.61 153.56000000000003 C 446.29 154.60000000000002 442.42 155.11000000000004 438.01 155.11000000000004 C 429.83 155.11000000000004 423.05 153.08000000000004 417.68 149.03000000000003 C 413.18 145.72000000000003 409.63 141.21000000000004 407.01 135.49000000000004 C 404.4 129.78000000000003 402.87 123.24000000000004 402.42 115.88000000000004 L 422.31 114.44000000000004 C 423.19 122.51000000000005 425.33 128.36000000000004 428.72 131.99000000000004 C 431.22 134.73000000000005 434.1 136.03000000000003 437.34000000000003 135.88000000000002 C 441.91 135.74000000000004 445.55 133.48000000000002 448.28000000000003 129.14000000000001 C 449.68 127.00000000000001 450.37 123.94000000000001 450.37 119.96000000000001 C 450.37 114.21000000000001 447.76 108.5 442.53000000000003 102.82000000000001 C 438.40000000000003 98.92 432.21000000000004 93.05000000000001 423.97 85.23 C 417.04 78.52000000000001 412.15000000000003 72.51 409.27000000000004 67.2 C 406.18000000000006 61.230000000000004 404.63000000000005 54.74 404.63000000000005 47.74 C 404.63000000000005 35.13 408.87000000000006 25.580000000000002 417.34000000000003 19.090000000000003 C 422.57000000000005 15.190000000000003 429.05 13.230000000000004 436.79 13.230000000000004 C 444.23 13.230000000000004 450.61 14.890000000000004 455.91 18.200000000000003 C 460.04 20.78 463.37 24.390000000000004 465.91 29.03 C 468.46000000000004 33.67 469.98 39.010000000000005 470.5 45.05 L 450.51 48.699999999999996 C 449.90999999999997 43.029999999999994 448.3 38.61 445.64 35.42999999999999 C 443.71999999999997 33.14999999999999 440.96 31.999999999999993 437.36 31.999999999999993 C 433.53000000000003 31.999999999999993 430.61 33.699999999999996 428.63 37.08999999999999 C 427.01 39.819999999999986 426.19 43.20999999999999 426.19 47.25999999999999 C 426.19 53.599999999999994 428.92 60.03999999999999 434.37 66.6 C 436.43 69.1 439.52 72.05 443.65 75.44 C 448.51 79.49 451.71999999999997 82.33 453.26 83.95 C 458.40999999999997 89.11 462.39 94.19 465.19 99.2 C 466.52 101.55 467.59 103.73 468.39 105.72 C 470.37 110.65 471.4 115.08 471.48 118.98" stroke-linecap="round" />
</g>
		<g transform="matrix(1 0 0 1 81.04 0.11)"  >
<path style="stroke: none; stroke-width: 1; stroke-dasharray: none; stroke-linecap: butt; stroke-dashoffset: 0; stroke-linejoin: miter; stroke-miterlimit: 4; fill: rgb(0,0,38); fill-rule: nonzero; opacity: 1;" vector-effect="non-scaling-stroke"  transform=" translate(-568.28, -84.34)" d="M 568.32 155.22 C 559.11 155.22 551.2800000000001 152 544.84 145.55 C 538.4 139.11 535.1700000000001 131.32000000000002 535.1700000000001 122.18 L 535.1700000000001 46.61 C 535.1700000000001 37.4 538.4100000000001 29.57 544.9000000000001 23.12 C 551.3800000000001 16.68 559.19 13.450000000000001 568.33 13.450000000000001 C 577.5400000000001 13.450000000000001 585.34 16.700000000000003 591.76 23.18 C 598.17 29.67 601.38 37.47 601.38 46.61 L 601.38 62.4 L 579.7 62.4 L 579.7 46.16 C 579.7 42.839999999999996 578.5200000000001 40.01 576.1600000000001 37.65 C 573.8000000000001 35.3 570.96 34.12 567.6500000000001 34.12 C 564.3400000000001 34.12 561.5200000000001 35.3 559.2 37.65 C 556.88 40.01 555.72 42.839999999999996 555.72 46.16 L 555.72 121.96 C 555.72 125.27999999999999 556.88 128.09 559.2 130.41 C 561.5200000000001 132.73 564.34 133.89 567.6500000000001 133.89 C 570.96 133.89 573.8000000000001 132.73 576.1600000000001 130.41 C 578.5100000000001 128.09 579.7 125.28 579.7 121.96 L 579.7 102.85 L 601.36 102.85 L 601.36 122.17999999999999 C 601.36 131.4 598.11 139.2 591.63 145.60999999999999 C 585.15 152.02 577.38 155.22 568.32 155.22" stroke-linecap="round" />
</g>
		<g transform="matrix(1 0 0 1 189.61 0)"  >
<path style="stroke: none; stroke-width: 1; stroke-dasharray: none; stroke-linecap: butt; stroke-dashoffset: 0; stroke-linejoin: miter; stroke-miterlimit: 4; fill: rgb(0,0,38); fill-rule: nonzero; opacity: 1;" vector-effect="non-scaling-stroke"  transform=" translate(-676.84, -84.23)" d="M 674.75 15 C 686.38 15 694.92 18.2 700.38 24.61 C 705.17 30.21 707.57 38.019999999999996 707.57 48.04 L 707.57 68.15 C 707.57 77.95 703.85 86.24000000000001 696.4100000000001 93.01 L 711.8700000000001 153.46 L 689.2900000000001 153.46 L 676.6300000000001 101.30000000000001 L 674.7600000000001 101.30000000000001 L 662.7 101.30000000000001 L 662.7 153.46 L 641.8100000000001 153.46 L 641.8100000000001 15 L 674.75 15 z M 687.23 48.37 C 687.23 40.339999999999996 683.25 36.33 675.3000000000001 36.33 L 662.7 36.33 L 662.7 80.64 L 675.2900000000001 80.64 C 678.6100000000001 80.64 681.4300000000001 79.46 683.7500000000001 77.1 C 686.0700000000002 74.75 687.2200000000001 71.91 687.2200000000001 68.58999999999999 L 687.2200000000001 48.37 z" stroke-linecap="round" />
</g>
		<g transform="matrix(1 0 0 1 295.6 -0.06)"  >
<polygon style="stroke: none; stroke-width: 1; stroke-dasharray: none; stroke-linecap: butt; stroke-dashoffset: 0; stroke-linejoin: miter; stroke-miterlimit: 4; fill: rgb(0,0,38); fill-rule: nonzero; opacity: 1;" vector-effect="non-scaling-stroke"  points="-29.73,69.28 -29.73,-69.28 29.72,-69.28 29.72,-48.29 -8.84,-48.29 -8.84,-10.5 19.33,-10.5 19.33,10.5 -8.84,10.5 -8.84,48.29 29.72,48.29 29.72,69.28 " />
</g>
		<g transform="matrix(1 0 0 1 416.89 0)"  >
<polygon style="stroke: none; stroke-width: 1; stroke-dasharray: none; stroke-linecap: butt; stroke-dashoffset: 0; stroke-linejoin: miter; stroke-miterlimit: 4; fill: rgb(0,0,38); fill-rule: nonzero; opacity: 1;" vector-effect="non-scaling-stroke"  points="31.95,-69.22 53.87,-69.22 32.21,69.22 12.31,69.22 0.4,-6.94 -10.7,69.22 -30.68,69.22 -53.87,-69.22 -31.99,-69.22 -21.05,4.93 -10.99,-69.22 10.88,-69.22 21.81,4.86 " />
</g>
</g>
</g>
</svg>